<svg id="visual" viewBox="0 0 3840 2160" width="3840" height="2160" xmlns="http://www.w3.org/2000/svg" xmlns:xlink="http://www.w3.org/1999/xlink" version="1.1"><rect x="0" y="0" width="3840" height="2160" fill="#001220"></rect><path d="M0 1403L91.5 1386.7C183 1370.3 366 1337.7 548.8 1319C731.7 1300.3 914.3 1295.7 1097.2 1320.8C1280 1346 1463 1401 1645.8 1397.7C1828.7 1394.3 2011.3 1332.7 2194.2 1345.5C2377 1358.3 2560 1445.7 2742.8 1493.2C2925.7 1540.7 3108.3 1548.3 3291.2 1520C3474 1491.7 3657 1427.3 3748.5 1395.2L3840 1363L3840 2161L3748.5 2161C3657 2161 3474 2161 3291.2 2161C3108.3 2161 2925.7 2161 2742.8 2161C2560 2161 2377 2161 2194.2 2161C2011.3 2161 1828.7 2161 1645.8 2161C1463 2161 1280 2161 1097.2 2161C914.3 2161 731.7 2161 548.8 2161C366 2161 183 2161 91.5 2161L0 2161Z" fill="#fa7268"></path><path d="M0 1440L91.5 1461.3C183 1482.7 366 1525.3 548.8 1534.3C731.7 1543.3 914.3 1518.7 1097.2 1494.3C1280 1470 1463 1446 1645.8 1449.3C1828.7 1452.7 2011.3 1483.3 2194.2 1511.3C2377 1539.3 2560 1564.7 2742.8 1573C2925.7 1581.3 3108.3 1572.7 3291.2 1548.3C3474 1524 3657 1484 3748.5 1464L3840 1444L3840 2161L3748.5 2161C3657 2161 3474 2161 3291.2 2161C3108.3 2161 2925.7 2161 2742.8 2161C2560 2161 2377 2161 2194.2 2161C2011.3 2161 1828.7 2161 1645.8 2161C1463 2161 1280 2161 1097.2 2161C914.3 2161 731.7 2161 548.8 2161C366 2161 183 2161 91.5 2161L0 2161Z" fill="#ef5f67"></path><path d="M0 1805L91.5 1791.8C183 1778.7 366 1752.3 548.8 1738.7C731.7 1725 914.3 1724 1097.2 1729.3C1280 1734.7 1463 1746.3 1645.8 1722.7C1828.7 1699 2011.3 1640 2194.2 1628.3C2377 1616.7 2560 1652.3 2742.8 1656.8C2925.7 1661.3 3108.3 1634.7 3291.2 1644.5C3474 1654.3 3657 1700.7 3748.5 1723.8L3840 1747L3840 2161L3748.5 2161C3657 2161 3474 2161 3291.2 2161C3108.3 2161 2925.7 2161 2742.8 2161C2560 2161 2377 2161 2194.2 2161C2011.3 2161 1828.7 2161 1645.8 2161C1463 2161 1280 2161 1097.2 2161C914.3 2161 731.7 2161 548.8 2161C366 2161 183 2161 91.5 2161L0 2161Z" fill="#e34c67"></path><path d="M0 1784L91.5 1775.5C183 1767 366 1750 548.8 1756.3C731.7 1762.7 914.3 1792.3 1097.2 1804.3C1280 1816.3 1463 1810.7 1645.8 1833C1828.7 1855.3 2011.3 1905.7 2194.2 1925C2377 1944.3 2560 1932.7 2742.8 1913.3C2925.7 1894 3108.3 1867 3291.2 1847.3C3474 1827.7 3657 1815.3 3748.5 1809.2L3840 1803L3840 2161L3748.5 2161C3657 2161 3474 2161 3291.2 2161C3108.3 2161 2925.7 2161 2742.8 2161C2560 2161 2377 2161 2194.2 2161C2011.3 2161 1828.7 2161 1645.8 2161C1463 2161 1280 2161 1097.2 2161C914.3 2161 731.7 2161 548.8 2161C366 2161 183 2161 91.5 2161L0 2161Z" fill="#d53867"></path><path d="M0 1936L91.5 1941.2C183 1946.3 366 1956.7 548.8 1967.2C731.7 1977.7 914.3 1988.3 1097.2 1997.7C1280 2007 1463 2015 1645.8 2012.8C1828.7 2010.7 2011.3 1998.3 2194.2 1979C2377 1959.7 2560 1933.3 2742.8 1927C2925.7 1920.7 3108.3 1934.3 3291.2 1958.7C3474 1983 3657 2018 3748.5 2035.5L3840 2053L3840 2161L3748.5 2161C3657 2161 3474 2161 3291.2 2161C3108.3 2161 2925.7 2161 2742.8 2161C2560 2161 2377 2161 2194.2 2161C2011.3 2161 1828.7 2161 1645.8 2161C1463 2161 1280 2161 1097.2 2161C914.3 2161 731.7 2161 548.8 2161C366 2161 183 2161 91.5 2161L0 2161Z" fill="#c62368"></path></svg>