<svg id="visual" viewBox="0 0 1920 1080" width="1920" height="1080" xmlns="http://www.w3.org/2000/svg" xmlns:xlink="http://www.w3.org/1999/xlink" version="1.1"><g stroke-width="1" stroke-linejoin="bevel"><path d="M929 556L788 707L949 707Z" fill="#2c7298" stroke="#2c7298"></path><path d="M929 556L753 579L788 707Z" fill="#2d5778" stroke="#2d5778"></path><path d="M788 707L955 909L949 707Z" fill="#2d668a" stroke="#2d668a"></path><path d="M542 917L804 928L788 707Z" fill="#2c7298" stroke="#2c7298"></path><path d="M788 707L804 928L955 909Z" fill="#2c7298" stroke="#2c7298"></path><path d="M1156 872L1165 688L949 707Z" fill="#2b769d" stroke="#2b769d"></path><path d="M949 707L1165 688L929 556Z" fill="#2b769d" stroke="#2b769d"></path><path d="M1164 509L991 363L929 556Z" fill="#297ea6" stroke="#297ea6"></path><path d="M929 556L735 365L753 579Z" fill="#2d6286" stroke="#2d6286"></path><path d="M991 363L735 365L929 556Z" fill="#2d668a" stroke="#2d668a"></path><path d="M735 365L575 517L753 579Z" fill="#297ea6" stroke="#297ea6"></path><path d="M753 579L540 707L788 707Z" fill="#2d668a" stroke="#2d668a"></path><path d="M1165 688L1164 509L929 556Z" fill="#2d668a" stroke="#2d668a"></path><path d="M575 517L540 707L753 579Z" fill="#2d5778" stroke="#2d5778"></path><path d="M955 909L1156 872L949 707Z" fill="#2d668a" stroke="#2d668a"></path><path d="M1376 350L1181 356L1164 509Z" fill="#2c7298" stroke="#2c7298"></path><path d="M1164 509L1181 356L991 363Z" fill="#2d668a" stroke="#2d668a"></path><path d="M734 156L554 327L735 365Z" fill="#2c7298" stroke="#2c7298"></path><path d="M540 707L542 917L788 707Z" fill="#2d5b7d" stroke="#2d5b7d"></path><path d="M734 156L735 365L991 363Z" fill="#2d668a" stroke="#2d668a"></path><path d="M735 365L554 327L575 517Z" fill="#2d5778" stroke="#2d5778"></path><path d="M575 517L396 548L540 707Z" fill="#2a7aa1" stroke="#2a7aa1"></path><path d="M804 928L946 1080L955 909Z" fill="#2d668a" stroke="#2d668a"></path><path d="M955 909L1145 1080L1156 872Z" fill="#2c7298" stroke="#2c7298"></path><path d="M788 1080L946 1080L804 928Z" fill="#2d6a8f" stroke="#2d6a8f"></path><path d="M588 1080L788 1080L804 928Z" fill="#2d668a" stroke="#2d668a"></path><path d="M1334 757L1321 578L1165 688Z" fill="#2d5e81" stroke="#2d5e81"></path><path d="M1165 688L1321 578L1164 509Z" fill="#2b769d" stroke="#2b769d"></path><path d="M1156 872L1334 757L1165 688Z" fill="#2d6286" stroke="#2d6286"></path><path d="M1362 880L1334 757L1156 872Z" fill="#297ea6" stroke="#297ea6"></path><path d="M554 327L396 548L575 517Z" fill="#2d5b7d" stroke="#2d5b7d"></path><path d="M540 707L355 879L542 917Z" fill="#2d668a" stroke="#2d668a"></path><path d="M396 548L388 682L540 707Z" fill="#2d5b7d" stroke="#2d5b7d"></path><path d="M1181 356L998 162L991 363Z" fill="#2d5778" stroke="#2d5778"></path><path d="M998 162L734 156L991 363Z" fill="#2a7aa1" stroke="#2a7aa1"></path><path d="M946 1080L1145 1080L955 909Z" fill="#2b769d" stroke="#2b769d"></path><path d="M364 1080L588 1080L542 917Z" fill="#2d5e81" stroke="#2d5e81"></path><path d="M542 917L588 1080L804 928Z" fill="#2d6e94" stroke="#2d6e94"></path><path d="M1340 1080L1362 880L1156 872Z" fill="#2d5b7d" stroke="#2d5b7d"></path><path d="M1572 543L1376 350L1321 578Z" fill="#2d6a8f" stroke="#2d6a8f"></path><path d="M734 156L568 166L554 327Z" fill="#2c7298" stroke="#2c7298"></path><path d="M554 327L382 324L396 548Z" fill="#2a7aa1" stroke="#2a7aa1"></path><path d="M1356 185L1182 171L1181 356Z" fill="#2d668a" stroke="#2d668a"></path><path d="M1181 356L1182 171L998 162Z" fill="#2d5e81" stroke="#2d5e81"></path><path d="M230 711L355 879L388 682Z" fill="#2a7aa1" stroke="#2a7aa1"></path><path d="M388 682L355 879L540 707Z" fill="#2c7298" stroke="#2c7298"></path><path d="M421 157L382 324L554 327Z" fill="#2d6a8f" stroke="#2d6a8f"></path><path d="M206 568L230 711L388 682Z" fill="#2d6286" stroke="#2d6286"></path><path d="M1321 578L1376 350L1164 509Z" fill="#2d6a8f" stroke="#2d6a8f"></path><path d="M1528 726L1321 578L1334 757Z" fill="#297ea6" stroke="#297ea6"></path><path d="M206 568L388 682L396 548Z" fill="#2d6a8f" stroke="#2d6a8f"></path><path d="M1145 1080L1340 1080L1156 872Z" fill="#2a7aa1" stroke="#2a7aa1"></path><path d="M1132 0L966 0L998 162Z" fill="#2b769d" stroke="#2b769d"></path><path d="M998 162L966 0L734 156Z" fill="#2d6286" stroke="#2d6286"></path><path d="M734 156L593 0L568 166Z" fill="#2a7aa1" stroke="#2a7aa1"></path><path d="M966 0L760 0L734 156Z" fill="#2d6a8f" stroke="#2d6a8f"></path><path d="M568 166L421 157L554 327Z" fill="#2d5e81" stroke="#2d5e81"></path><path d="M593 0L421 157L568 166Z" fill="#2d6286" stroke="#2d6286"></path><path d="M176 360L206 568L396 548Z" fill="#297ea6" stroke="#297ea6"></path><path d="M1498 886L1334 757L1362 880Z" fill="#2d5778" stroke="#2d5778"></path><path d="M1498 886L1528 726L1334 757Z" fill="#2d668a" stroke="#2d668a"></path><path d="M176 360L396 548L382 324Z" fill="#2a7aa1" stroke="#2a7aa1"></path><path d="M1376 350L1356 185L1181 356Z" fill="#2d668a" stroke="#2d668a"></path><path d="M1182 171L1132 0L998 162Z" fill="#2d6a8f" stroke="#2d6a8f"></path><path d="M1537 166L1356 185L1376 350Z" fill="#2d5e81" stroke="#2d5e81"></path><path d="M355 879L364 1080L542 917Z" fill="#2d5b7d" stroke="#2d5b7d"></path><path d="M220 889L364 1080L355 879Z" fill="#2d5b7d" stroke="#2d5b7d"></path><path d="M1340 1080L1498 886L1362 880Z" fill="#2d5b7d" stroke="#2d5b7d"></path><path d="M1341 0L1132 0L1182 171Z" fill="#2b769d" stroke="#2b769d"></path><path d="M0 705L220 889L230 711Z" fill="#2d6a8f" stroke="#2d6a8f"></path><path d="M230 711L220 889L355 879Z" fill="#2d5b7d" stroke="#2d5b7d"></path><path d="M760 0L593 0L734 156Z" fill="#2b769d" stroke="#2b769d"></path><path d="M1700 392L1572 543L1735 507Z" fill="#2d5e81" stroke="#2d5e81"></path><path d="M1528 726L1572 543L1321 578Z" fill="#2a7aa1" stroke="#2a7aa1"></path><path d="M1572 543L1564 386L1376 350Z" fill="#2b769d" stroke="#2b769d"></path><path d="M154 186L176 360L382 324Z" fill="#2c7298" stroke="#2c7298"></path><path d="M0 904L202 1080L220 889Z" fill="#2c7298" stroke="#2c7298"></path><path d="M154 186L382 324L421 157Z" fill="#2d5778" stroke="#2d5778"></path><path d="M1523 0L1341 0L1356 185Z" fill="#2a7aa1" stroke="#2a7aa1"></path><path d="M1356 185L1341 0L1182 171Z" fill="#2d6e94" stroke="#2d6e94"></path><path d="M0 705L230 711L206 568Z" fill="#2d5e81" stroke="#2d5e81"></path><path d="M220 889L202 1080L364 1080Z" fill="#297ea6" stroke="#297ea6"></path><path d="M593 0L371 0L421 157Z" fill="#297ea6" stroke="#297ea6"></path><path d="M1564 386L1537 166L1376 350Z" fill="#2d5b7d" stroke="#2d5b7d"></path><path d="M1340 1080L1570 1080L1498 886Z" fill="#2d6286" stroke="#2d6286"></path><path d="M1760 903L1747 730L1528 726Z" fill="#2c7298" stroke="#2c7298"></path><path d="M371 0L154 186L421 157Z" fill="#2d6286" stroke="#2d6286"></path><path d="M0 572L0 705L206 568Z" fill="#2d6a8f" stroke="#2d6a8f"></path><path d="M1572 543L1700 392L1564 386Z" fill="#2d6e94" stroke="#2d6e94"></path><path d="M1564 386L1712 205L1537 166Z" fill="#2a7aa1" stroke="#2a7aa1"></path><path d="M1735 507L1572 543L1747 730Z" fill="#2c7298" stroke="#2c7298"></path><path d="M0 572L206 568L176 360Z" fill="#2d668a" stroke="#2d668a"></path><path d="M0 369L0 572L176 360Z" fill="#2d6a8f" stroke="#2d6a8f"></path><path d="M1747 730L1572 543L1528 726Z" fill="#297ea6" stroke="#297ea6"></path><path d="M1760 903L1528 726L1498 886Z" fill="#2a7aa1" stroke="#2a7aa1"></path><path d="M0 705L0 904L220 889Z" fill="#2c7298" stroke="#2c7298"></path><path d="M154 186L0 369L176 360Z" fill="#2d6a8f" stroke="#2d6a8f"></path><path d="M1744 0L1523 0L1537 166Z" fill="#2d6a8f" stroke="#2d6a8f"></path><path d="M1537 166L1523 0L1356 185Z" fill="#2d668a" stroke="#2d668a"></path><path d="M1570 1080L1760 903L1498 886Z" fill="#2b769d" stroke="#2b769d"></path><path d="M1747 730L1920 535L1735 507Z" fill="#2c7298" stroke="#2c7298"></path><path d="M1570 1080L1690 1080L1760 903Z" fill="#2b769d" stroke="#2b769d"></path><path d="M1920 321L1712 205L1700 392Z" fill="#2c7298" stroke="#2c7298"></path><path d="M1700 392L1712 205L1564 386Z" fill="#2d6a8f" stroke="#2d6a8f"></path><path d="M371 0L158 0L154 186Z" fill="#2d6a8f" stroke="#2d6a8f"></path><path d="M154 186L0 149L0 369Z" fill="#2d668a" stroke="#2d668a"></path><path d="M0 904L0 1080L202 1080Z" fill="#2d5778" stroke="#2d5778"></path><path d="M158 0L0 149L154 186Z" fill="#297ea6" stroke="#297ea6"></path><path d="M1920 884L1920 697L1747 730Z" fill="#2d6286" stroke="#2d6286"></path><path d="M1735 507L1920 321L1700 392Z" fill="#2d6a8f" stroke="#2d6a8f"></path><path d="M1920 884L1747 730L1760 903Z" fill="#2d5e81" stroke="#2d5e81"></path><path d="M1920 697L1920 535L1747 730Z" fill="#2d5b7d" stroke="#2d5b7d"></path><path d="M1920 1080L1920 884L1760 903Z" fill="#297ea6" stroke="#297ea6"></path><path d="M158 0L0 0L0 149Z" fill="#2d6a8f" stroke="#2d6a8f"></path><path d="M1920 205L1744 0L1712 205Z" fill="#2d6a8f" stroke="#2d6a8f"></path><path d="M1712 205L1744 0L1537 166Z" fill="#297ea6" stroke="#297ea6"></path><path d="M1920 535L1920 321L1735 507Z" fill="#297ea6" stroke="#297ea6"></path><path d="M1920 321L1920 205L1712 205Z" fill="#2d5e81" stroke="#2d5e81"></path><path d="M1690 1080L1920 1080L1760 903Z" fill="#2d5b7d" stroke="#2d5b7d"></path><path d="M1920 205L1920 0L1744 0Z" fill="#2d5b7d" stroke="#2d5b7d"></path></g></svg>